Coordinates
version=1
nRows=27
nColumns=12
inDegrees=yes

Units are S.I. units (second, meters, Newtons, ...)
Angles are in degrees

endheader
time	SC_y	SC_z	SC_x	AC_y	AC_z	AC_x	GH_y	GH_z	GH_yy	EL_x	PS_y
       0.0              -23.87         -3.893          21.34          63.71         -17.12          -10.4         -25.52            4.0          159.5          87.72          113.2
  0.006892              -23.87         -3.893          21.35          63.71         -17.12         -10.39         -25.53            4.0          159.5          87.73          113.2
   0.01378              -23.87         -3.892          21.36          63.71         -17.12         -10.39         -25.54          4.001          159.5          87.74          113.2
   0.02068              -23.88         -3.892          21.37           63.7         -17.12         -10.39         -25.55          4.002          159.4          87.74          113.2
   0.02757              -23.88         -3.891          21.37           63.7         -17.12         -10.38         -25.56          4.003          159.4          87.75          113.2
   0.03446              -23.89         -3.891          21.38           63.7         -17.12         -10.38         -25.58          4.004          159.3          87.76          113.2
   0.04135              -23.89          -3.89          21.39          63.69         -17.12         -10.37         -25.59          4.005          159.3          87.77          113.2
   0.04825               -23.9         -3.889           21.4          63.69         -17.12         -10.37         -25.61          4.006          159.2          87.78          113.2
   0.05514              -23.91         -3.888          21.42          63.69         -17.11         -10.36         -25.63          4.007          159.2          87.79          113.2
   0.06203              -23.91         -3.888          21.43          63.68         -17.11         -10.36         -25.64          4.009          159.1           87.8          113.2
   0.06892              -23.92         -3.887          21.44          63.68         -17.11         -10.35         -25.66           4.01          159.1          87.81          113.2
   0.07581              -23.93         -3.886          21.45          63.67         -17.11         -10.34         -25.69          4.012          159.0          87.82          113.2
   0.08271              -23.94         -3.885          21.47          63.67         -17.11         -10.34         -25.71          4.013          159.0          87.83          113.2
    0.0896              -23.95         -3.884          21.49          63.66         -17.11         -10.33         -25.73          4.015          158.9          87.85          113.2
   0.09649              -23.96         -3.882           21.5          63.66         -17.11         -10.32         -25.76          4.017          158.8          87.86          113.2
    0.1034              -23.97         -3.881          21.52          63.65         -17.11         -10.31         -25.79          4.019          158.7          87.88          113.2
    0.1103              -23.98          -3.88          21.54          63.64         -17.11          -10.3         -25.82          4.022          158.6           87.9          113.2
    0.1172              -23.99         -3.878          21.56          63.63         -17.11         -10.29         -25.85          4.024          158.5          87.91          113.2
    0.1241              -24.01         -3.877          21.59          63.63          -17.1         -10.28         -25.89          4.027          158.4          87.94          113.2
     0.131              -24.02         -3.875          21.62          63.62          -17.1         -10.26         -25.93           4.03          158.3          87.96          113.2
    0.1378              -24.04         -3.873          21.65          63.61          -17.1         -10.25         -25.98          4.033          158.2          87.98          113.2
    0.1447              -24.06         -3.871          21.68          63.59          -17.1         -10.23         -26.03          4.037          158.0          88.01          113.2
    0.1516              -24.08         -3.868          21.71          63.58          -17.1         -10.21         -26.08          4.041          157.9          88.04          113.2
    0.1585               -24.1         -3.865          21.75          63.57         -17.09         -10.19         -26.14          4.045          157.7          88.08          113.2
    0.1654              -24.13         -3.862           21.8          63.55         -17.09         -10.17         -26.21           4.05          157.5          88.11          113.2
    0.1723              -24.16         -3.859          21.85          63.53         -17.09         -10.15         -26.28          4.055          157.3          88.16          113.2
    0.1792              -24.19         -3.855           21.9          63.51         -17.08         -10.12         -26.37          4.061          157.0           88.2          113.2
